<svg xmlns="http://www.w3.org/2000/svg" viewBox="0 0 512 512" width="512" height="512">
  <defs>
    <linearGradient id="bgGrad" x1="0%" y1="0%" x2="100%" y2="100%">
      <stop offset="0%" stop-color="#059669" /> <!-- Emerald 600 -->
      <stop offset="100%" stop-color="#0284c7" /> <!-- Sky 600 -->
    </linearGradient>
    <filter id="shadow" x="-10%" y="-10%" width="120%" height="120%">
      <feDropShadow dx="0" dy="8" stdDeviation="12" flood-color="#0f172a" flood-opacity="0.15" />
    </filter>
  </defs>
  <!-- Background Board -->
  <rect width="512" height="512" rx="112" fill="url(#bgGrad)" />
  
  <!-- Icon Graphics Group -->
  <g filter="url(#shadow)" transform="translate(106, 106)">
    <!-- Slate Card Background -->
    <rect x="0" y="30" width="300" height="260" rx="24" fill="#ffffff" />
    <!-- Slate Header Bar -->
    <rect x="0" y="30" width="300" height="64" rx="24" fill="#f8fafc" />
    <path d="M 0 54 L 0 94 L 300 94 L 300 54 Z" fill="#f8fafc" />
    <!-- Binder Rings -->
    <rect x="60" y="10" width="20" height="40" rx="10" fill="#cbd5e1" />
    <rect x="140" y="10" width="20" height="40" rx="10" fill="#cbd5e1" />
    <rect x="220" y="10" width="20" height="40" rx="10" fill="#cbd5e1" />
    
    <!-- Checklist items -->
    <!-- Item 1 - Checked -->
    <circle cx="70" cy="140" r="16" fill="#10b981" />
    <path d="M 64 140 L 68 144 L 76 136" stroke="#ffffff" stroke-width="4" stroke-linecap="round" stroke-linejoin="round" fill="none" />
    <rect x="110" y="132" width="130" height="16" rx="8" fill="#e2e8f0" />
    
    <!-- Item 2 - Checked -->
    <circle cx="70" cy="195" r="16" fill="#10b981" />
    <path d="M 64 195 L 68 199 L 76 191" stroke="#ffffff" stroke-width="4" stroke-linecap="round" stroke-linejoin="round" fill="none" />
    <rect x="110" y="187" width="110" height="16" rx="8" fill="#e2e8f0" />
    
    <!-- Item 3 - Checked -->
    <circle cx="70" cy="250" r="16" fill="#0284c7" />
    <path d="M 64 250 L 68 254 L 76 246" stroke="#ffffff" stroke-width="4" stroke-linecap="round" stroke-linejoin="round" fill="none" />
    <rect x="110" y="242" width="140" height="16" rx="8" fill="#e2e8f0" />
  </g>
</svg>
